#!OML:ASF F:\VICON\USERDATA\INSTALL\rory3\rory3.ASF
:FULLY-SPECIFIED
:DEGREES
275
root 0.323509 17.7005 21.5535 -1.09514 2.74305 3.60036
lowerback 9.96979 -1.09917 -5.48087
upperback 0.70659 -2.03718 0.710063
thorax -4.63881 -0.888846 4.11011
lowerneck -17.3488 -2.72108 -2.20275
upperneck 18.9394 -3.45358 1.28704
head 8.85273 -1.64208 0.364816
rclavicle 3.30976e-014 -9.54166e-015
rhumerus -28.9052 -23.3802 -78.6798
rradius 22.1899
rwrist 9.54365
rhand -17.1842 23.5442
rfingers 7.12502
rthumb 9.05764 -6.24138
lclavicle 3.30976e-014 -9.54166e-015
lhumerus -20.4784 -6.82297 83.982
lradius 32.4924
lwrist 7.7922
lhand -27.7435 26.6435
lfingers 7.12502
lthumb -1.13818 56.6202
rfemur -28.8278 5.61129 15.2485
rtibia 15.8609
rfoot -12.2311 -13.8881
rtoes 1.03852
lfemur 14.2159 -3.88579 -28.0907
ltibia 14.7671
lfoot -15.9594 -2.06188
ltoes -6.17678
276
root 0.298133 17.6805 21.7492 -1.05182 2.49578 3.56677
lowerback 9.85984 -1.04152 -5.52169
upperback 0.694315 -1.95911 0.708305
thorax -4.5975 -0.850643 4.11766
lowerneck -17.3608 -2.71115 -2.17598
upperneck 19.0176 -3.4592 1.33522
head 8.88221 -1.63723 0.375513
rclavicle 3.8266e-015 -1.35174e-014
rhumerus -29.0607 -23.5219 -78.6632
rradius 22.2346
rwrist 9.52491
rhand -17.06 23.1435
rfingers 7.12502
rthumb 9.17749 -6.63682
lclavicle 3.8266e-015 -1.35174e-014
lhumerus -20.5773 -7.0465 83.989
lradius 32.4048
lwrist 8.40379
lhand -27.3293 24.9128
lfingers 7.12502
lthumb -0.738171 54.8912
rfemur -29.0489 4.79695 15.9946
rtibia 17.1772
rfoot -12.0321 -13.0078
rtoes 2.19122
lfemur 14.6108 -3.99712 -28.016
ltibia 15.4967
lfoot -15.8442 -2.01683
ltoes -7.65183
277
root 0.273745 17.6579 21.9487 -1.13133 2.30175 3.59488
lowerback 9.89275 -0.981314 -5.65861
upperback 0.720922 -1.89521 0.714897
thorax -4.59048 -0.817072 4.19429
lowerneck -17.595 -2.71925 -2.10697
upperneck 19.2134 -3.48832 1.3371
head 8.99101 -1.64338 0.35711
rclavicle -3.90115e-015 -2.38542e-015
rhumerus -29.1422 -23.5436 -78.6576
rradius 22.2907
rwrist 9.65484
rhand -17.2436 22.9392
rfingers 7.12502
rthumb 9.00025 -6.84882
lclavicle -3.90115e-015 -2.38542e-015
lhumerus -20.611 -7.05552 84.0124
lradius 32.2596
lwrist 8.73719
lhand -26.1873 25.4493
lfingers 7.12502
lthumb 0.364852 55.4287
rfemur -29.0616 4.42377 16.5275
rtibia 18.5195
rfoot -11.9822 -12.7773
rtoes 1.11008
lfemur 15.2707 -4.07455 -28.0281
ltibia 16.4336
lfoot -15.9577 -1.6008
ltoes -8.96183
278
root 0.246179 17.6384 22.1601 -1.39603 2.08572 3.18432
lowerback 10.0757 -0.949481 -5.3976
upperback 0.769524 -1.82521 0.877843
thorax -4.6521 -0.785265 4.2142
lowerneck -17.7419 -2.68841 -2.13466
upperneck 19.3347 -3.42081 1.26588
head 9.05734 -1.62044 0.343637
rclavicle 6.75868e-015 1.35174e-014
rhumerus -29.2439 -23.3631 -78.6233
rradius 22.2942
rwrist 9.76449
rhand -17.3053 22.7108
rfingers 7.12502
rthumb 8.94077 -7.07977
lclavicle 6.75868e-015 1.35174e-014
lhumerus -20.8677 -6.93525 84.0414
lradius 32.3167
lwrist 8.72583
lhand -25.3711 26.0042
lfingers 7.12502
lthumb 1.15313 55.9808
rfemur -28.7769 4.46639 17.4375
rtibia 19.925
rfoot -12.3721 -12.5883
rtoes 1.2612
lfemur 16.1604 -4.06583 -27.5531
ltibia 17.2796
lfoot -16.3946 -0.985061
ltoes -8.88491
279
root 0.22109 17.6258 22.3656 -1.39374 1.97097 2.97891
lowerback 10.1224 -0.95559 -5.32176
upperback 0.657542 -1.82338 1.01465
thorax -4.79407 -0.777585 4.31917
lowerneck -17.3828 -2.65516 -2.31182
upperneck 19.1501 -3.33452 1.27973
head 8.93092 -1.59455 0.393957
rclavicle 1.77167e-014 5.96354e-015
rhumerus -29.509 -23.4092 -78.3962
rradius 22.1803
rwrist 10.0068
rhand -17.3053 22.732
rfingers 7.12502
rthumb 8.94072 -7.05852
lclavicle 1.77167e-014 5.96354e-015
lhumerus -21.2138 -6.72031 84.132
lradius 32.2156
lwrist 8.52491
lhand -25.592 24.8211
lfingers 7.12502
lthumb 0.939769 54.7987
rfemur -28.7152 4.55438 17.9942
rtibia 21.1746
rfoot -11.724 -12.0498
rtoes -0.354927
lfemur 16.5605 -4.1825 -27.2974
ltibia 17.9543
lfoot -16.0828 -0.983098
ltoes -12.2312
280
root 0.197176 17.638 22.5782 -1.27111 2.18546 3.08262
lowerback 9.91181 -1.04566 -5.40844
upperback 0.530191 -1.94621 0.977718
thorax -4.79489 -0.83406 4.34109
lowerneck -17.086 -2.67233 -2.47648
upperneck 19.1487 -3.36231 1.46127
head 8.88388 -1.60187 0.482793
rclavicle -5.36719e-015 1.27222e-014
rhumerus -29.8293 -23.8921 -78.0777
rradius 21.9042
rwrist 10.5029
rhand -17.4873 23.4048
rfingers 7.12502
rthumb 8.76512 -6.39316
lclavicle -5.36719e-015 1.27222e-014
lhumerus -21.5027 -6.64708 84.14
lradius 32.0024
lwrist 8.48987
lhand -25.7122 24.5069
lfingers 7.12502
lthumb 0.823664 54.4851
rfemur -28.6437 4.63652 18.0089
rtibia 22.0302
rfoot -9.39115 -11.6436
rtoes -4.14709
lfemur 16.4597 -4.56254 -27.3726
ltibia 18.8407
lfoot -15.5115 -1.42055
ltoes -19.1338
